<svg width="368" height="298" viewBox="0 0 368 298" fill="none" xmlns="http://www.w3.org/2000/svg">
<path d="M181.274 14.2657V5.34536C181.275 4.87798 181.178 4.41552 180.99 3.98797C180.801 3.56041 180.524 3.17731 180.178 2.86351C179.832 2.54971 179.423 2.31221 178.979 2.16642C178.535 2.02062 178.065 1.96979 177.6 2.01721C103.84 10.3899 46.5504 73.0001 46.5504 149H37.616C37.1478 148.998 36.6845 149.095 36.2563 149.285C35.8281 149.474 35.4447 149.752 35.131 150.099C34.8173 150.447 34.5804 150.857 34.4357 151.302C34.291 151.747 34.2419 152.218 34.2914 152.684C42.6641 226.44 105.271 283.737 181.274 283.737V292.657C181.273 293.125 181.37 293.588 181.56 294.016C181.749 294.443 182.026 294.826 182.373 295.14C182.72 295.453 183.13 295.69 183.574 295.835C184.019 295.981 184.489 296.03 184.954 295.982C258.714 287.609 316.008 224.999 316.008 149H324.928C325.396 149.002 325.86 148.905 326.288 148.716C326.716 148.527 327.1 148.25 327.414 147.903C327.728 147.555 327.965 147.146 328.11 146.701C328.256 146.255 328.305 145.785 328.256 145.319C319.884 71.5628 257.273 14.2657 181.274 14.2657" fill="#45E0A8"/>
<path d="M181.274 14.2657V5.34536C181.275 4.87798 181.178 4.41552 180.99 3.98797C180.801 3.56041 180.524 3.17731 180.178 2.86351C179.832 2.54971 179.423 2.31221 178.979 2.16642C178.535 2.02062 178.065 1.96979 177.6 2.01721C103.84 10.3899 46.5504 73.0001 46.5504 149H37.616C37.1478 148.998 36.6845 149.095 36.2563 149.285C35.8281 149.474 35.4447 149.752 35.131 150.099C34.8173 150.447 34.5804 150.857 34.4357 151.302C34.291 151.747 34.2419 152.218 34.2914 152.684C42.6641 226.44 105.271 283.737 181.274 283.737V292.657C181.273 293.125 181.37 293.588 181.56 294.016C181.749 294.443 182.026 294.826 182.373 295.14C182.72 295.453 183.13 295.69 183.574 295.835C184.019 295.981 184.489 296.03 184.954 295.982C258.714 287.609 316.008 224.999 316.008 149H324.928C325.396 149.002 325.86 148.905 326.288 148.716C326.716 148.527 327.1 148.25 327.414 147.903C327.728 147.555 327.965 147.146 328.11 146.701C328.256 146.255 328.305 145.785 328.256 145.319C319.884 71.5628 257.273 14.2657 181.274 14.2657" stroke="white" stroke-width="2" stroke-miterlimit="10" stroke-linejoin="round"/>
<path d="M155.978 89.3513V70.1185L201.239 70.7116V90.4014L179.174 104.816L155.978 89.3513Z" fill="#45E0A8" stroke="black" stroke-width="1.2" stroke-linecap="round" stroke-linejoin="round"/>
<path d="M253.753 106.599C237.545 92.6899 218.037 95.5575 208.342 85.5103C205.34 82.4072 203.062 78.6783 201.672 74.5909C199.376 84.9766 190.553 92.648 180.14 93.4295C169.214 94.2458 158.957 87.293 155.573 76.6423C155.434 79.1715 155.224 84.5195 151.69 85.8592C130.654 93.8376 123.289 95.9762 110.256 104.823C99.5913 112.073 89.2301 146.299 80.5085 176.134C89.8964 200.331 101.05 222.219 110.434 246.412L110.221 264.602C131.523 276.488 156.068 282.865 182.198 282.865V292.26C182.198 294.238 183.091 295.284 185.059 295.051C223 291 248.5 277.5 272.5 253L289.194 195.234C267.007 170.291 276.82 126.397 253.753 106.599Z" fill="black"/>
<path d="M178.8 92.5223C178.392 111.336 179.149 134.515 179.149 153.856C179.149 198.161 181.591 241.207 181.591 282.858" stroke="#45E0A8" stroke-width="1.2" stroke-miterlimit="10"/>
<path d="M166.915 113.273C157.329 107.176 150.003 98.1092 146.056 87.4569" stroke="#45E0A8" stroke-width="1.2" stroke-linecap="round" stroke-linejoin="round"/>
<path d="M190.299 113.273C199.885 107.177 207.21 98.1098 211.154 87.4569" stroke="#45E0A8" stroke-width="1.2" stroke-linecap="round" stroke-linejoin="round"/>
<path d="M61.2758 194.648C49.4948 200.425 17.8321 202.986 22.458 214.718C34.417 227.194 68.3961 210.787 65.689 216.483C70.4579 226.834 31.9052 252.207 34.7763 259.927C36.6671 265.024 49.0308 263.503 68.1135 241.849C77.6387 245.118 87.8185 246.009 97.7668 244.445C103.871 243.455 109.789 241.539 115.315 238.762C121.253 227.145 123.418 213.963 121.507 201.057L91.5047 187.8L61.2758 194.648Z" fill="#45E0A8"/>
<path d="M69.3206 237.112L68.1135 241.849C67.2448 249.705 48.5145 264.546 53.3462 269.612C58.1152 274.614 82.4378 258.657 88.4452 237.112" fill="#45E0A8"/>
<path d="M99.6367 235.57C100.125 235.158 103.125 232.716 107.176 233.333C108.928 233.611 110.563 234.387 111.885 235.57" fill="#45E0A8"/>
<path d="M115.318 238.762C121.257 227.145 123.422 213.963 121.51 201.057L91.5082 187.8L61.2898 194.638C49.5087 200.415 17.846 202.976 22.4719 214.708C34.4309 227.183 68.41 210.776 65.7029 216.473C70.4718 226.824 31.9191 252.196 34.7902 259.917C36.6811 265.014 49.0447 263.493 68.1275 241.839" stroke="black" stroke-width="1.2" stroke-linecap="round" stroke-linejoin="round"/>
<path d="M69.3206 237.112L68.1135 241.849C67.2448 249.705 48.5145 264.546 53.3462 269.612C57.5012 273.969 76.4897 262.425 85.288 245.135" stroke="black" stroke-width="1.2" stroke-linecap="round" stroke-linejoin="round"/>
<path d="M276 250.183C252.631 275.101 220.729 291.921 184.954 295.982C184.489 296.031 184.019 295.981 183.574 295.835C183.13 295.69 182.72 295.453 182.373 295.14C182.026 294.826 181.749 294.443 181.56 294.016C181.37 293.588 181.273 293.125 181.274 292.657V283.737C145.652 283.737 112.974 271.151 87.4421 250.183" stroke="white" stroke-width="2" stroke-miterlimit="10" stroke-linejoin="round"/>
<path d="M86.7463 237.112C88.0511 245.355 72.3767 247.947 74.5362 255.252C77.1282 263.974 100.921 252.779 102.571 244.884" fill="#45E0A8"/>
<path d="M86.7463 237.112C88.0511 245.355 72.3767 247.947 74.5362 255.252C77.1282 263.974 100.921 252.779 102.571 244.884" stroke="black" stroke-width="1.2" stroke-linecap="round" stroke-linejoin="round"/>
<path d="M97.397 242.756C97.397 248.997 99.5181 251.942 102.933 252.65C112.231 254.572 119.825 227.752 120.181 225.955" fill="#45E0A8"/>
<path d="M97.397 242.756C97.397 248.997 99.5181 251.942 102.933 252.65C112.231 254.572 119.825 227.752 120.181 225.955" stroke="black" stroke-width="1.2" stroke-linecap="round" stroke-linejoin="round"/>
<path d="M97.397 242.756C98.611 228.68 109.813 233.619 111.885 235.57" stroke="black" stroke-width="1.2" stroke-linecap="round" stroke-linejoin="round"/>
<path d="M87.9847 235.315C106.423 235.315 121.371 220.368 121.371 201.929C121.371 183.49 106.423 168.543 87.9847 168.543C69.5461 168.543 54.5986 183.49 54.5986 201.929C54.5986 220.368 69.5461 235.315 87.9847 235.315Z" fill="black"/>
<path d="M77.9827 222.466C77.9827 222.466 68.0751 222.738 69.2612 211.85C69.2612 211.85 71.3299 199.602 85.2425 202.323C85.2425 202.323 88.2811 203.021 93.9641 207.497C93.9641 207.497 97.7109 210.472 99.7761 210.417C99.7761 210.417 101.377 210.574 104.706 208.404C104.706 208.404 111.498 203.003 113.874 203.171C113.929 203.171 118.663 202.637 118.663 210.497C118.663 210.497 118.751 219.163 112.412 222.065C112.412 222.065 110.737 222.655 108.923 220.705C108.923 220.705 103.729 214.624 101.175 213.626C100.048 213.272 98.8338 213.32 97.7388 213.762C97.7388 213.762 96.4619 213.898 91.2255 217.485C91.2255 217.485 82.4168 223.154 77.9688 222.473L77.9827 222.466Z" fill="white"/>
<path d="M123.46 168.239C123.481 172.712 121.018 189.911 120.495 191.962" stroke="#45E0A8" stroke-width="1.2" stroke-linecap="round" stroke-linejoin="round"/>
<path d="M234.325 168.511C235.532 178.74 244.648 223.032 252.389 241.186" stroke="#45E0A8" stroke-width="1.2" stroke-linecap="round" stroke-linejoin="round"/>
<path d="M306.819 198.716C318.603 204.493 350.266 207.057 345.637 218.789C333.678 231.261 299.702 214.854 302.406 220.555C297.64 230.905 336.189 256.275 333.322 263.998C331.427 269.092 319.067 267.571 299.981 245.92C290.455 249.186 280.276 250.076 270.328 248.512C264.222 247.522 258.304 245.602 252.78 242.819C250.689 237.936 248.847 232.95 247.261 227.881C245.573 222.473 244.303 217.383 243.343 212.716C246.345 206.45 251.064 201.166 256.951 197.478C262.839 193.791 269.653 191.851 276.6 191.885L306.819 198.716Z" fill="#45E0A8"/>
<path d="M298.777 241.179L299.981 245.92C300.853 253.773 319.58 268.617 314.752 273.683C309.979 278.685 285.657 262.725 279.649 241.179" fill="#45E0A8"/>
<path d="M246.584 205.142L276.586 191.885L306.805 198.723C318.589 204.5 350.252 207.064 345.623 218.796C333.664 231.268 299.688 214.861 302.392 220.562C297.626 230.912 336.175 256.282 333.308 264.005C331.413 269.099 319.053 267.578 299.967 245.927" stroke="black" stroke-width="1.2" stroke-linecap="round" stroke-linejoin="round"/>
<path d="M298.777 241.179L299.981 245.92C300.853 253.773 319.58 268.617 314.752 273.683C310.597 278.04 291.605 266.496 282.806 249.207" stroke="black" stroke-width="1.2" stroke-linecap="round" stroke-linejoin="round"/>
<path d="M281.348 241.179C280.044 249.426 295.718 252.015 293.558 259.32C290.966 268.042 267.174 256.847 265.524 248.955" fill="#45E0A8"/>
<path d="M281.348 241.179C280.044 249.426 295.718 252.015 293.558 259.32C290.966 268.042 267.174 256.847 265.524 248.955" stroke="black" stroke-width="1.2" stroke-linecap="round" stroke-linejoin="round"/>
<path d="M270.698 246.824C270.698 253.069 268.577 256.013 265.161 256.718C255.864 258.643 248.269 231.819 247.917 230.023" fill="#45E0A8"/>
<path d="M270.697 246.824C270.697 253.069 268.576 256.013 265.161 256.718C255.864 258.643 246.584 232.601 245.911 228.53" stroke="black" stroke-width="1.2" stroke-linecap="round" stroke-linejoin="round"/>
<path d="M270.7 246.82C270.5 239.63 261.99 234.063 256.22 239.63" stroke="black" stroke-width="1.2" stroke-linecap="round" stroke-linejoin="round"/>
<path d="M153.18 44.3621C152.65 40.2385 150.459 39.4362 149.866 39.4362C145.198 39.4362 145.003 57.5037 152.51 60.326" fill="white"/>
<path d="M153.18 44.3621C152.65 40.2385 150.459 39.4362 149.866 39.4362C145.198 39.4362 145.003 57.5037 152.51 60.326" stroke="black" stroke-width="1.2" stroke-linecap="round" stroke-linejoin="round"/>
<path d="M151.785 41.0025C150.285 16.345 163.346 4.28483 182.181 5.2442C196.425 5.9803 205.904 19.3905 205.16 39.7815C205.16 40.3188 205.115 40.8595 205.084 41.4072C206.029 73.6804 195.521 90.3909 177.524 90.3909C165.875 90.3909 154.848 80.9263 152.329 59.1189C152.008 53.2266 152.133 46.9088 151.785 41.0025Z" fill="#45E0A8"/>
<path d="M160.806 12.0713C154.45 17.9636 150.972 27.6235 151.792 41.0024C152.141 46.9086 152.008 53.2125 152.343 59.1432C154.855 80.9505 165.889 90.4152 177.538 90.4152C179.628 90.4215 181.711 90.1708 183.74 89.6686C153.979 92.7072 153.18 41.6862 160.806 12.0713Z" fill="white"/>
<path d="M151.948 44.6656C151.911 43.4329 151.859 42.2131 151.792 41.006C150.284 16.345 163.346 4.28483 182.181 5.2442C196.425 5.9803 205.903 19.3905 205.16 39.7815" stroke="black" stroke-width="1.2" stroke-linecap="round" stroke-linejoin="round"/>
<path d="M204.149 60.0364C201.173 80.0924 191.663 90.3873 177.538 90.3873C165.889 90.3873 154.862 80.9227 152.343 59.1154" stroke="black" stroke-width="1.2" stroke-linecap="round" stroke-linejoin="round"/>
<path d="M203.458 41.9445C204.323 39.9001 205.701 39.4362 206.151 39.4362C210.819 39.4362 210.442 57.5142 204.149 60.0364" stroke="black" stroke-width="1.2" stroke-linecap="round" stroke-linejoin="round"/>
<path d="M175.176 54.6534C175.176 59.6143 176.32 62.5587 178.682 62.5587C181.508 62.5587 182.429 59.6143 182.429 54.6534" stroke="black" stroke-width="1.2" stroke-linecap="round" stroke-linejoin="round"/>
<path d="M173.191 70.7115H184.414" stroke="black" stroke-width="1.2" stroke-linecap="round" stroke-linejoin="round"/>
<path d="M191.011 54.6534C196.321 54.6534 200.625 51.4921 200.625 47.5925C200.625 43.6928 196.321 40.5315 191.011 40.5315C185.701 40.5315 181.396 43.6928 181.396 47.5925C181.396 51.4921 185.701 54.6534 191.011 54.6534Z" fill="black"/>
<path d="M166.594 54.6534C171.904 54.6534 176.208 51.4921 176.208 47.5925C176.208 43.6928 171.904 40.5315 166.594 40.5315C161.284 40.5315 156.979 43.6928 156.979 47.5925C156.979 51.4921 161.284 54.6534 166.594 54.6534Z" fill="black"/>
<path d="M175.507 47.4564C176.49 46.8827 177.608 46.5803 178.746 46.5803C179.885 46.5803 181.002 46.8827 181.985 47.4564" stroke="black" stroke-width="1.2" stroke-linecap="round" stroke-linejoin="round"/>
<path d="M176.85 41.6061L163.639 57.8456" stroke="#45E0A8" stroke-width="1.2" stroke-linecap="round" stroke-linejoin="round"/>
<path d="M176.85 41.6061L163.639 57.8456" stroke="#45E0A8" stroke-width="1.2" stroke-linecap="round" stroke-linejoin="round"/>
<path d="M191.011 37.929L177.803 54.172" stroke="#45E0A8" stroke-width="1.2" stroke-linecap="round" stroke-linejoin="round"/>
<path d="M63.927 177.896C70.2654 171.559 78.8491 167.981 87.8117 167.939C96.7742 167.897 105.391 171.395 111.788 177.673C118.185 183.95 121.846 192.499 121.974 201.46C122.102 210.422 118.687 219.072 112.471 225.529" stroke="#45E0A8" stroke-width="1.2" stroke-linecap="round" stroke-linejoin="round"/>
<path d="M286.048 233.354C303.394 229.26 314.136 211.88 310.042 194.535C305.948 177.189 288.568 166.447 271.223 170.541C253.877 174.635 243.135 192.015 247.229 209.36C251.323 226.706 268.703 237.448 286.048 233.354Z" fill="black"/>
<path d="M301.685 224.973C314.413 212.246 314.413 191.611 301.685 178.883C288.958 166.156 268.323 166.156 255.595 178.883C242.868 191.611 242.868 212.246 255.595 224.973C268.323 237.701 288.958 237.701 301.685 224.973Z" stroke="black" stroke-width="1.2" stroke-linecap="round" stroke-linejoin="round"/>
<path d="M251.067 201.929C251.067 207.107 252.524 212.181 255.271 216.57C258.019 220.959 261.947 224.486 266.605 226.747L253.453 190.706C251.876 194.237 251.063 198.062 251.067 201.929V201.929ZM297.253 200.533C297.253 197.125 296.028 194.767 294.982 192.928C293.586 190.657 292.271 188.742 292.271 186.464C292.271 183.928 294.193 181.58 296.904 181.58C297.026 181.58 297.141 181.58 297.253 181.601C294.31 178.903 290.815 176.878 287.012 175.664C283.208 174.45 279.187 174.077 275.225 174.571C271.263 175.064 267.456 176.413 264.066 178.523C260.677 180.633 257.787 183.455 255.595 186.792C256.241 186.813 256.851 186.827 257.368 186.827C260.253 186.827 264.718 186.478 264.718 186.478C266.204 186.391 266.379 188.571 264.893 188.749C264.893 188.749 263.399 188.927 261.753 189.014L271.793 218.87L277.828 200.771L273.537 189C272.055 188.913 270.645 188.738 270.645 188.738C269.163 188.651 269.334 186.38 270.82 186.467C270.82 186.467 275.376 186.816 278.083 186.816C280.968 186.816 285.434 186.467 285.434 186.467C286.92 186.38 287.094 188.561 285.611 188.738C285.611 188.738 284.111 188.913 282.472 189L292.435 218.653L295.188 209.461C296.377 205.648 297.281 202.909 297.281 200.547L297.253 200.533ZM279.112 204.336L270.841 228.38C276.395 230.015 282.323 229.861 287.785 227.94C287.709 227.819 287.644 227.692 287.59 227.56L279.119 204.34L279.112 204.336ZM302.835 188.697C302.96 189.637 303.022 190.584 303.02 191.533C303.02 194.324 302.496 197.463 300.926 201.409L292.505 225.76C298.716 222.146 303.272 216.251 305.202 209.33C307.133 202.408 306.286 195.007 302.842 188.7L302.835 188.697ZM278.641 169.785C272.284 169.785 266.069 171.67 260.783 175.202C255.496 178.734 251.376 183.755 248.944 189.629C246.511 195.502 245.874 201.966 247.115 208.201C248.356 214.437 251.417 220.164 255.913 224.659C260.409 229.155 266.137 232.216 272.372 233.456C278.608 234.696 285.071 234.059 290.945 231.625C296.818 229.192 301.838 225.071 305.37 219.785C308.901 214.498 310.786 208.283 310.785 201.925C310.775 193.404 307.385 185.234 301.359 179.209C295.333 173.183 287.163 169.794 278.641 169.785V169.785ZM278.641 232.597C272.575 232.599 266.644 230.801 261.599 227.432C256.554 224.062 252.622 219.272 250.299 213.668C247.977 208.063 247.368 201.896 248.551 195.946C249.733 189.996 252.654 184.53 256.943 180.24C261.233 175.949 266.698 173.027 272.648 171.843C278.598 170.659 284.765 171.266 290.37 173.588C295.975 175.909 300.766 179.84 304.136 184.884C307.507 189.928 309.306 195.859 309.306 201.925C309.299 210.057 306.066 217.853 300.317 223.603C294.568 229.353 286.772 232.588 278.641 232.597V232.597Z" fill="white"/>
</svg>
